<svg width="9" height="9" viewBox="0 0 9 9" fill="none" xmlns="http://www.w3.org/2000/svg">
<path d="M5.60113 3.19393L5.71152 3.5994L5.82191 3.19393C5.84963 3.09209 5.86357 3.04109 5.89081 2.99912C5.91484 2.96226 5.94629 2.93082 5.98315 2.90678C6.0248 2.87954 6.0758 2.86576 6.17796 2.83789L6.58342 2.72749L6.17796 2.6171C6.07612 2.58938 6.02528 2.57545 5.98315 2.5482C5.94629 2.52417 5.91484 2.49272 5.89081 2.45587C5.86357 2.41421 5.84979 2.36321 5.82191 2.26105L5.71152 1.85559L5.60113 2.26105C5.57341 2.36289 5.55947 2.41389 5.53223 2.45587C5.5082 2.49272 5.47675 2.52417 5.43989 2.5482C5.39824 2.57545 5.34724 2.58922 5.24508 2.6171L4.83962 2.72749L5.24508 2.83789C5.34692 2.8656 5.39792 2.87954 5.43989 2.90678C5.47675 2.93082 5.5082 2.96226 5.53223 2.99912C5.55947 3.04078 5.57325 3.09178 5.60113 3.19393ZM4.63182 4.02703C4.65858 4.06568 4.67363 4.11288 4.70404 4.20759L4.76137 4.38498L4.81871 4.20759C4.84896 4.11335 4.86417 4.06615 4.89093 4.02703C4.91453 3.99282 4.94478 3.96368 4.97979 3.94103C5.01922 3.91553 5.0669 3.90191 5.16193 3.87483L5.31572 3.83095L5.16193 3.78708C5.06674 3.75984 5.01907 3.74622 4.97979 3.72088C4.94481 3.69833 4.91461 3.6691 4.89093 3.63488C4.86417 3.59623 4.84912 3.54903 4.81871 3.45432L4.76137 3.27693L4.70404 3.45432C4.67379 3.54856 4.65858 3.59575 4.63182 3.63488C4.60822 3.66909 4.57797 3.69823 4.54296 3.72088C4.50353 3.74638 4.45585 3.76 4.36082 3.78708L4.20703 3.83095L4.36082 3.87483C4.45601 3.90207 4.50368 3.91569 4.54296 3.94103C4.57794 3.96358 4.60814 3.99281 4.63182 4.02703Z" fill="url(#paint0_linear_7480_4329)"/>
<path d="M4.38492 7.26789C5.97714 7.26789 7.26789 5.97714 7.26789 4.38492C7.26789 4.25153 7.06796 4.22948 6.99898 4.34365C6.67081 4.88674 6.07478 5.24981 5.39396 5.24981C4.35902 5.24981 3.52003 4.41082 3.52003 3.37588C3.52003 2.69506 3.8831 2.09903 4.42619 1.77086C4.54036 1.70188 4.51831 1.50195 4.38492 1.50195C2.7927 1.50195 1.50195 2.7927 1.50195 4.38492C1.50195 5.97714 2.7927 7.26789 4.38492 7.26789Z" fill="url(#paint1_linear_7480_4329)"/>
<defs>
<linearGradient id="paint0_linear_7480_4329" x1="3.99336" y1="2.25382" x2="5.72661" y2="4.81086" gradientUnits="userSpaceOnUse">
<stop offset="0.35" stop-color="#3E7BFA"/>
<stop offset="0.72" stop-color="#6600CC"/>
</linearGradient>
<linearGradient id="paint1_linear_7480_4329" x1="0.983512" y1="2.40974" x2="4.83796" y2="8.46226" gradientUnits="userSpaceOnUse">
<stop offset="0.35" stop-color="#3E7BFA"/>
<stop offset="0.72" stop-color="#6600CC"/>
</linearGradient>
</defs>
</svg>
